<?xml version="1.0" standalone="no"?>
<!DOCTYPE svg PUBLIC "-//W3C//DTD SVG 20010904//EN"
 "http://www.w3.org/TR/2001/REC-SVG-20010904/DTD/svg10.dtd">
<svg version="1.0" xmlns="http://www.w3.org/2000/svg"
 width="500.000000pt" height="500.000000pt" viewBox="0 0 500.000000 500.000000"
 preserveAspectRatio="xMidYMid meet">

<g transform="translate(0.000000,500.000000) scale(0.100000,-0.100000)"
fill="#000000" stroke="none">
<path d="M1780 3807 c0 -10 16 -17 55 -22 74 -9 102 -34 115 -104 12 -65 13
-868 1 -930 -13 -63 -45 -91 -114 -98 -39 -4 -57 -10 -57 -19 0 -12 57 -14
320 -14 l320 0 0 -178 c0 -148 -3 -181 -16 -201 -21 -29 -72 -51 -119 -51 -24
0 -35 -4 -35 -15 0 -13 30 -15 210 -15 171 0 210 3 210 14 0 9 -16 15 -46 19
-57 6 -95 33 -111 78 -17 48 -17 270 0 268 6 -1 27 -1 45 0 31 1 32 3 32 42 0
44 0 44 -72 23 -11 -3 -18 0 -18 8 0 9 25 22 63 33 34 10 99 37 144 60 l82 42
53 -61 c30 -33 143 -170 252 -303 131 -161 205 -243 217 -243 18 0 19 19 20
548 1 301 4 558 8 571 10 36 50 61 109 68 34 4 52 10 52 19 0 11 -40 14 -210
14 -171 0 -210 -3 -210 -14 0 -9 18 -16 51 -20 28 -4 62 -14 75 -22 40 -27 45
-88 42 -478 l-3 -359 -130 161 c-71 89 -146 185 -166 213 l-37 51 24 51 c39
86 57 174 57 282 1 178 -50 312 -162 425 -76 77 -154 119 -271 145 -108 25
-780 35 -780 12z m714 -92 c140 -57 247 -191 281 -350 21 -98 17 -305 -5 -305
-4 0 -63 67 -131 150 l-124 149 -168 1 c-155 0 -168 -1 -165 -17 2 -13 14 -19
46 -20 54 -3 96 -25 150 -76 l42 -41 0 -257 0 -256 -31 -7 c-47 -9 -116 -6
-189 8 l-65 12 -3 512 -2 511 37 6 c21 4 43 8 48 11 6 2 55 2 110 0 81 -3 113
-8 169 -31z m102 -726 c22 -25 53 -62 69 -83 27 -36 27 -37 9 -58 -38 -43 -80
-78 -126 -103 l-48 -26 0 193 0 193 28 -35 c15 -19 45 -55 68 -81z"/>
<path d="M4132 1963 c-50 -24 -118 -121 -151 -213 -7 -23 -15 -30 -26 -26 -8
3 -44 8 -80 12 -36 4 -65 8 -65 10 0 2 11 39 25 83 17 53 33 84 46 91 11 6 17
15 14 20 -10 16 -96 23 -136 11 -36 -11 -79 -54 -66 -67 3 -3 8 4 12 15 3 11
21 25 41 31 36 12 114 5 114 -11 0 -5 -4 -9 -8 -9 -12 0 -48 -68 -62 -117 -13
-43 -27 -51 -104 -55 -17 -1 -5 -4 26 -7 l58 -6 -24 -52 c-14 -28 -36 -59 -50
-68 -31 -21 -89 -24 -110 -6 -25 21 -20 68 12 98 l27 27 -30 -19 c-40 -25 -54
-45 -55 -77 0 -57 73 -74 150 -35 40 20 98 87 112 129 3 9 20 9 76 -1 40 -7
74 -17 77 -22 3 -5 1 -27 -5 -49 -21 -78 23 -106 76 -48 16 18 20 25 8 15 -39
-32 -59 -18 -49 37 5 23 14 36 28 41 18 6 19 8 5 12 -14 3 -15 10 -6 41 19 69
65 158 93 180 35 28 95 30 96 5 0 -15 2 -15 8 2 18 45 -16 58 -77 28z"/>
<path d="M824 1946 c-32 -14 -74 -60 -74 -80 0 -6 9 3 20 21 25 41 75 56 141
42 46 -10 63 -29 40 -43 -5 -3 -23 -44 -40 -91 -17 -47 -40 -103 -51 -126
l-21 -40 -58 7 c-52 6 -60 4 -86 -18 -35 -31 -26 -48 23 -47 32 1 34 2 12 8
-14 4 -26 15 -28 24 -3 13 4 17 30 16 18 0 42 -4 53 -8 19 -8 19 -8 0 -19 -25
-14 -11 -16 16 -2 14 8 33 7 71 -5 148 -44 268 19 268 140 0 57 -43 139 -91
172 -21 16 -39 31 -39 34 0 3 10 11 23 18 15 8 16 10 2 5 -23 -9 -50 -9 -125
0 -38 4 -65 2 -86 -8z m210 -83 c46 -46 63 -78 72 -131 9 -57 -11 -109 -49
-128 -34 -18 -129 -15 -180 5 l-27 11 30 53 c16 29 38 78 49 108 23 68 49 119
60 119 4 0 25 -17 45 -37z"/>
<path d="M1505 1946 c-16 -7 -39 -24 -50 -37 l-20 -24 26 23 c35 30 84 37 163
22 82 -15 93 -27 67 -71 -10 -19 -24 -51 -31 -71 -11 -37 -13 -38 -58 -38
l-46 0 74 77 c47 48 60 65 35 45 -22 -16 -60 -51 -85 -76 -33 -35 -52 -46 -75
-46 -16 0 -37 -5 -45 -11 -11 -8 -5 -9 24 -5 l39 5 -37 -38 c-71 -73 -179
-115 -238 -92 -41 15 -64 56 -50 86 16 35 6 31 -13 -5 -22 -42 -19 -67 11 -97
23 -23 31 -25 80 -20 71 7 128 37 207 108 61 55 69 59 114 59 l49 0 -4 -68
c-3 -54 -1 -72 13 -85 22 -23 39 -21 67 6 13 12 19 19 14 15 -6 -5 -18 -8 -28
-8 -57 0 -34 196 34 292 l19 28 -24 9 c-34 13 -135 31 -171 31 -17 -1 -44 -7
-61 -14z"/>
<path d="M1978 1938 c-13 -13 -19 -20 -14 -15 14 10 44 9 50 -2 3 -4 -5 -46
-18 -92 -37 -132 -38 -135 -18 -159 28 -35 81 -21 145 38 l51 47 -24 -40 c-96
-162 -152 -203 -273 -197 -73 4 -105 111 -51 166 15 14 35 26 45 26 10 0 20 4
24 9 3 6 -6 6 -24 1 -106 -30 -145 -147 -68 -204 22 -16 42 -21 85 -20 100 2
181 58 270 187 52 76 155 267 147 275 -12 13 -36 -14 -78 -90 -61 -108 -118
-173 -163 -188 -31 -10 -39 -10 -52 4 -15 15 -15 23 8 104 13 48 24 105 24
127 1 33 -2 40 -20 43 -12 2 -32 -7 -46 -20z"/>
<path d="M2425 1950 c-11 -4 -31 -21 -45 -36 l-25 -29 26 23 c16 14 38 22 62
22 40 0 100 -21 111 -39 9 -13 -20 -124 -44 -171 -56 -109 -203 -156 -260 -82
-21 25 -21 42 -5 87 6 17 4 17 -14 -4 -50 -56 -13 -137 67 -148 111 -15 209
77 257 241 l17 58 23 -22 c30 -28 87 -137 110 -210 24 -74 35 -84 35 -29 0 86
72 251 130 296 19 16 53 16 68 1 9 -9 12 -7 12 9 0 11 -7 26 -15 33 -47 39
-141 -79 -185 -234 l-16 -59 -22 57 c-23 61 -79 151 -112 181 -11 10 -20 24
-20 32 0 8 -4 12 -9 9 -5 -3 -25 1 -45 9 -39 16 -70 18 -101 5z"/>
<path d="M3175 1948 c-126 -45 -211 -196 -142 -254 22 -19 22 -19 5 2 -40 46
-14 136 54 186 36 27 96 51 108 43 4 -3 19 4 31 15 l24 19 -25 0 c-14 0 -38
-5 -55 -11z"/>
<path d="M3447 1946 c-138 -50 -240 -243 -161 -305 32 -25 83 -27 124 -6 35
18 35 19 14 -31 -37 -91 -93 -134 -172 -134 -77 0 -126 77 -87 136 18 27 7 26
-27 -4 -18 -15 -24 -65 -12 -97 16 -42 129 -60 198 -31 69 29 140 121 171 224
10 35 -22 28 -45 -11 -34 -57 -94 -73 -131 -36 -19 19 -21 30 -16 86 9 115 80
193 177 195 55 1 78 -21 62 -57 -16 -35 4 -22 23 15 14 28 14 31 -5 50 -23 23
-59 25 -113 6z"/>
<path d="M4274 1950 c-33 -10 -94 -71 -94 -93 1 -7 7 0 16 15 8 15 28 35 44
43 30 15 124 20 191 9 l36 -6 -42 -42 c-28 -28 -48 -61 -60 -97 -39 -119 -79
-175 -131 -185 -78 -14 -139 29 -115 84 l11 27 -25 -28 c-30 -33 -31 -47 -7
-77 24 -30 90 -37 147 -16 57 22 119 92 141 159 37 114 74 161 126 162 17 0
33 5 35 11 8 25 -213 53 -273 34z"/>
<path d="M3167 1903 c-9 -9 -31 -59 -48 -110 -17 -51 -37 -100 -46 -108 -8 -8
-11 -15 -7 -15 13 0 -40 -51 -68 -66 -32 -16 -101 -18 -129 -4 -22 12 -26 59
-7 78 7 7 8 12 2 12 -6 0 -21 -11 -33 -24 -45 -47 -5 -96 77 -96 46 0 129 38
164 76 32 35 72 113 88 174 7 25 18 57 26 73 16 30 7 36 -19 10z"/>
</g>
</svg>
